<mxfile host="65bd71144e">
    <diagram id="MKuSY8VSyavK2Ai-hcvc" name="Page-1">
        <mxGraphModel dx="1626" dy="787" grid="1" gridSize="10" guides="1" tooltips="1" connect="1" arrows="1" fold="1" page="1" pageScale="1" pageWidth="850" pageHeight="1100" math="0" shadow="0">
            <root>
                <mxCell id="0"/>
                <mxCell id="1" parent="0"/>
                <mxCell id="5" value="$STATEMACHINE : RenderConfigEx" style="shape=swimlane;rotatable=0;align=center;verticalAlign=top;fontFamily=Lucida Console;startSize=30;fontSize=14;fontStyle=1;swimlaneFillColor=default;rounded=1;arcSize=15;absoluteArcSize=1;fillColor=#545454;fontColor=#EBEBEB;" parent="1" vertex="1">
                    <mxGeometry x="40" y="40" width="327" height="460" as="geometry"/>
                </mxCell>
                <mxCell id="6" value=" " style="fontFamily=Lucida Console;align=left;verticalAlign=top;fillColor=none;gradientColor=none;strokeColor=none;rounded=0;spacingLeft=4;resizable=0;movable=0;deletable=0;rotatable=0;autosize=1;" parent="5" vertex="1" connectable="0">
                    <mxGeometry y="30" width="30" height="20" as="geometry"/>
                </mxCell>
                <mxCell id="7" style="edgeStyle=none;html=1;" parent="5" source="8" target="9" edge="1">
                    <mxGeometry relative="1" as="geometry"/>
                </mxCell>
                <mxCell id="8" value="$initial_state" style="shape=ellipse;aspect=fixed;fillColor=#000000;resizable=0;rotatable=0;noLabel=1;editable=0;" parent="5" vertex="1">
                    <mxGeometry x="142.5" y="150" width="25" height="25" as="geometry"/>
                </mxCell>
                <mxCell id="9" value="OFF" style="shape=swimlane;rotatable=0;align=center;verticalAlign=top;fontFamily=Lucida Console;startSize=30;fontSize=14;fontStyle=1;swimlaneFillColor=default;html=1;rounded=1;arcSize=15;absoluteArcSize=1;fillColor=#545454;fontColor=#FAFAFA;" parent="5" vertex="1">
                    <mxGeometry x="65" y="210" width="180" height="60" as="geometry"/>
                </mxCell>
                <mxCell id="10" value="enter / light_off();" style="fontFamily=Lucida Console;align=left;verticalAlign=top;fillColor=none;gradientColor=none;strokeColor=none;rounded=0;spacingLeft=4;resizable=0;movable=0;deletable=0;rotatable=0;autosize=1;" parent="9" vertex="1" connectable="0">
                    <mxGeometry y="30" width="160" height="20" as="geometry"/>
                </mxCell>
                <mxCell id="24" value="DIM" style="edgeStyle=none;html=1;exitX=0.75;exitY=0;exitDx=0;exitDy=0;entryX=0.75;entryY=1;entryDx=0;entryDy=0;" parent="5" source="15" target="9" edge="1">
                    <mxGeometry x="-0.6667" relative="1" as="geometry">
                        <mxPoint as="offset"/>
                    </mxGeometry>
                </mxCell>
                <mxCell id="28" style="edgeStyle=none;html=1;exitX=0.5;exitY=1;exitDx=0;exitDy=0;entryX=0.5;entryY=0;entryDx=0;entryDy=0;" parent="5" source="9" target="15" edge="1">
                    <mxGeometry relative="1" as="geometry">
                        <mxPoint x="110" y="370" as="targetPoint"/>
                    </mxGeometry>
                </mxCell>
                <mxCell id="29" value="INCREASE" style="edgeLabel;html=1;align=center;verticalAlign=middle;resizable=0;points=[];" parent="28" vertex="1" connectable="0">
                    <mxGeometry x="-0.39" y="1" relative="1" as="geometry">
                        <mxPoint x="-1" y="5" as="offset"/>
                    </mxGeometry>
                </mxCell>
                <mxCell id="36" value="OFF" style="edgeStyle=none;html=1;exitX=0.25;exitY=0;exitDx=0;exitDy=0;entryX=0.25;entryY=1;entryDx=0;entryDy=0;" parent="5" source="15" target="9" edge="1">
                    <mxGeometry relative="1" as="geometry"/>
                </mxCell>
                <mxCell id="15" value="ON1" style="shape=swimlane;rotatable=0;align=center;verticalAlign=top;fontFamily=Lucida Console;startSize=30;fontSize=14;fontStyle=1;swimlaneFillColor=default;html=1;rounded=1;arcSize=15;absoluteArcSize=1;fillColor=#545454;fontColor=#FAFAFA;" parent="5" vertex="1">
                    <mxGeometry x="65" y="350" width="180" height="70" as="geometry"/>
                </mxCell>
                <mxCell id="16" value="enter / light_on1();" style="fontFamily=Lucida Console;align=left;verticalAlign=top;fillColor=none;gradientColor=none;strokeColor=none;rounded=0;spacingLeft=4;resizable=0;movable=0;deletable=0;rotatable=0;autosize=1;" parent="15" vertex="1" connectable="0">
                    <mxGeometry y="30" width="160" height="20" as="geometry"/>
                </mxCell>
                <mxCell id="62" value="$RenderConfig" style="shape=swimlane;rotatable=0;align=center;verticalAlign=top;fontFamily=Lucida Console;startSize=30;fontSize=14;fontStyle=1;swimlaneFillColor=default;html=1;rounded=1;arcSize=15;absoluteArcSize=1;fillColor=#76608a;strokeColor=#432D57;fontColor=#ffffff;" parent="5" vertex="1" collapsed="1">
                    <mxGeometry x="65" y="50" width="210" height="70" as="geometry">
                        <mxRectangle x="320" y="40" width="360" height="470" as="alternateBounds"/>
                    </mxGeometry>
                </mxCell>
                <mxCell id="63" value="" style="fontFamily=Lucida Console;align=left;verticalAlign=top;fillColor=none;gradientColor=none;strokeColor=none;rounded=0;spacingLeft=4;resizable=0;movable=0;deletable=0;rotatable=0;autosize=1;" parent="62" vertex="1" connectable="0">
                    <mxGeometry y="30" width="50" height="40" as="geometry"/>
                </mxCell>
                <mxCell id="73" value="&lt;b&gt;$NOTES&lt;/b&gt;&lt;br&gt;Generic expansions can only be created from the C# file within the &lt;b&gt;IRenderConfig&amp;nbsp;&lt;/b&gt;section for now.&lt;br&gt;See&amp;nbsp;https://github.com/StateSmith/StateSmith/issues/118" style="shape=rectangle;rounded=1;arcSize=15;absoluteArcSize=1;align=left;verticalAlign=top;whiteSpace=wrap;html=1;spacingLeft=4;strokeWidth=1;strokeColor=default;fillColor=#fff2cc;fontColor=#000000;gradientColor=#ffd966;" parent="62" vertex="1">
                    <mxGeometry x="40" y="40" width="340" height="80" as="geometry"/>
                </mxCell>
                <mxCell id="64" value="$CONFIG: HFileIncludes" style="shape=swimlane;rotatable=0;align=center;verticalAlign=top;fontFamily=Lucida Console;startSize=30;fontSize=14;fontStyle=1;swimlaneFillColor=default;html=1;rounded=1;arcSize=15;absoluteArcSize=1;fillColor=#76608a;fontColor=#ffffff;strokeColor=#432D57;" parent="62" vertex="1" collapsed="1">
                    <mxGeometry x="360" y="370" width="280" height="70" as="geometry">
                        <mxRectangle x="30" y="60" width="290" height="90" as="alternateBounds"/>
                    </mxGeometry>
                </mxCell>
                <mxCell id="65" value="// sm level - HFileIncludes" style="fontFamily=Lucida Console;align=left;verticalAlign=top;fillColor=none;gradientColor=none;strokeColor=none;rounded=0;spacingLeft=4;resizable=0;movable=0;deletable=0;rotatable=0;autosize=1;" parent="64" vertex="1" connectable="0">
                    <mxGeometry y="30" width="220" height="30" as="geometry"/>
                </mxCell>
                <mxCell id="66" value="&lt;b&gt;$NOTES&lt;/b&gt;&lt;br&gt;Anything you type in the &lt;b&gt;HFileIncludes &lt;/b&gt;vertex ends up in the generated h file. It is combined with the C# &lt;b&gt;IRenderConfigC.HFileIncludes&lt;/b&gt; config." style="shape=rectangle;rounded=1;arcSize=15;absoluteArcSize=1;align=left;verticalAlign=top;whiteSpace=wrap;html=1;spacingLeft=4;strokeWidth=1;strokeColor=default;fillColor=#fff2cc;fontColor=#000000;gradientColor=#ffd966;" parent="64" vertex="1">
                    <mxGeometry x="40" y="120" width="330" height="70" as="geometry"/>
                </mxCell>
                <mxCell id="67" value="$CONFIG: CFileIncludes" style="shape=swimlane;rotatable=0;align=center;verticalAlign=top;fontFamily=Lucida Console;startSize=30;fontSize=14;fontStyle=1;swimlaneFillColor=default;html=1;rounded=1;arcSize=15;absoluteArcSize=1;fillColor=#76608a;fontColor=#ffffff;strokeColor=#432D57;" parent="62" vertex="1" collapsed="1">
                    <mxGeometry x="40" y="370" width="280" height="70" as="geometry">
                        <mxRectangle x="30" y="170" width="290" height="90" as="alternateBounds"/>
                    </mxGeometry>
                </mxCell>
                <mxCell id="68" value="// sm level - CFileIncludes" style="fontFamily=Lucida Console;align=left;verticalAlign=top;fillColor=none;gradientColor=none;strokeColor=none;rounded=0;spacingLeft=4;resizable=0;movable=0;deletable=0;rotatable=0;autosize=1;" parent="67" vertex="1" connectable="0">
                    <mxGeometry y="30" width="220" height="30" as="geometry"/>
                </mxCell>
                <mxCell id="69" value="&lt;b&gt;$NOTES&lt;/b&gt;&lt;br&gt;Anything you type in the &lt;b&gt;CFileIncludes &lt;/b&gt;vertex ends up in the generated h file. It is combined with the C# &lt;b&gt;IRenderConfigC.CFileIncludes&lt;/b&gt; config." style="shape=rectangle;rounded=1;arcSize=15;absoluteArcSize=1;align=left;verticalAlign=top;whiteSpace=wrap;html=1;spacingLeft=4;strokeWidth=1;strokeColor=default;fillColor=#fff2cc;fontColor=#000000;gradientColor=#ffd966;" parent="67" vertex="1">
                    <mxGeometry x="50" y="130" width="330" height="70" as="geometry"/>
                </mxCell>
                <mxCell id="74" value="$CONFIG: HFileTop" style="shape=swimlane;rotatable=0;align=center;verticalAlign=top;fontFamily=Lucida Console;startSize=30;fontSize=14;fontStyle=1;swimlaneFillColor=default;html=1;rounded=1;arcSize=15;absoluteArcSize=1;fillColor=#76608a;fontColor=#ffffff;strokeColor=#432D57;" parent="62" vertex="1" collapsed="1">
                    <mxGeometry x="680" y="370" width="280" height="70" as="geometry">
                        <mxRectangle x="30" y="60" width="290" height="90" as="alternateBounds"/>
                    </mxGeometry>
                </mxCell>
                <mxCell id="75" value="// sm level - HFileTop" style="fontFamily=Lucida Console;align=left;verticalAlign=top;fillColor=none;gradientColor=none;strokeColor=none;rounded=0;spacingLeft=4;resizable=0;movable=0;deletable=0;rotatable=0;autosize=1;" parent="74" vertex="1" connectable="0">
                    <mxGeometry y="30" width="180" height="30" as="geometry"/>
                </mxCell>
                <mxCell id="77" value="$CONFIG: CFileTop" style="shape=swimlane;rotatable=0;align=center;verticalAlign=top;fontFamily=Lucida Console;startSize=30;fontSize=14;fontStyle=1;swimlaneFillColor=default;html=1;rounded=1;arcSize=15;absoluteArcSize=1;fillColor=#76608a;fontColor=#ffffff;strokeColor=#432D57;" parent="62" vertex="1" collapsed="1">
                    <mxGeometry x="1000" y="370" width="280" height="70" as="geometry">
                        <mxRectangle x="30" y="170" width="290" height="90" as="alternateBounds"/>
                    </mxGeometry>
                </mxCell>
                <mxCell id="78" value="// sm level - CFileTop" style="fontFamily=Lucida Console;align=left;verticalAlign=top;fillColor=none;gradientColor=none;strokeColor=none;rounded=0;spacingLeft=4;resizable=0;movable=0;deletable=0;rotatable=0;autosize=1;" parent="77" vertex="1" connectable="0">
                    <mxGeometry y="30" width="180" height="30" as="geometry"/>
                </mxCell>
                <mxCell id="128" value="$CONFIG: CFileExtension" style="shape=swimlane;rotatable=0;align=center;verticalAlign=top;fontFamily=Lucida Console;startSize=30;fontSize=14;fontStyle=1;swimlaneFillColor=default;html=1;rounded=1;arcSize=15;absoluteArcSize=1;fillColor=#76608a;fontColor=#ffffff;strokeColor=#432D57;" parent="62" vertex="1">
                    <mxGeometry x="1320" y="370" width="280" height="70" as="geometry">
                        <mxRectangle x="1320" y="430" width="280" height="70" as="alternateBounds"/>
                    </mxGeometry>
                </mxCell>
                <mxCell id="129" value=".cpp" style="fontFamily=Lucida Console;align=left;verticalAlign=top;fillColor=none;gradientColor=none;strokeColor=none;rounded=0;spacingLeft=4;resizable=0;movable=0;deletable=0;rotatable=0;autosize=1;" parent="128" vertex="1" connectable="0">
                    <mxGeometry y="30" width="50" height="30" as="geometry"/>
                </mxCell>
                <mxCell id="130" value="$CONFIG: HFileExtension" style="shape=swimlane;rotatable=0;align=center;verticalAlign=top;fontFamily=Lucida Console;startSize=30;fontSize=14;fontStyle=1;swimlaneFillColor=default;html=1;rounded=1;arcSize=15;absoluteArcSize=1;fillColor=#76608a;fontColor=#ffffff;strokeColor=#432D57;" parent="62" vertex="1">
                    <mxGeometry x="1640" y="370" width="320" height="70" as="geometry">
                        <mxRectangle x="1320" y="430" width="280" height="70" as="alternateBounds"/>
                    </mxGeometry>
                </mxCell>
                <mxCell id="131" value=".hpp" style="fontFamily=Lucida Console;align=left;verticalAlign=top;fillColor=none;gradientColor=none;strokeColor=none;rounded=0;spacingLeft=4;resizable=0;movable=0;deletable=0;rotatable=0;autosize=1;" parent="130" vertex="1" connectable="0">
                    <mxGeometry y="30" width="50" height="30" as="geometry"/>
                </mxCell>
                <mxCell id="132" value="$CONFIG: CEnumDeclarer" style="shape=swimlane;rotatable=0;align=center;verticalAlign=top;fontFamily=Lucida Console;startSize=30;fontSize=14;fontStyle=1;swimlaneFillColor=default;html=1;rounded=1;arcSize=15;absoluteArcSize=1;fillColor=#76608a;fontColor=#ffffff;strokeColor=#432D57;" parent="62" vertex="1">
                    <mxGeometry x="2000" y="370" width="370" height="70" as="geometry">
                        <mxRectangle x="1320" y="430" width="280" height="70" as="alternateBounds"/>
                    </mxGeometry>
                </mxCell>
                <mxCell id="133" value="typedef enum __attribute__((packed)) {enumName}" style="fontFamily=Lucida Console;align=left;verticalAlign=top;fillColor=none;gradientColor=none;strokeColor=none;rounded=0;spacingLeft=4;resizable=0;movable=0;deletable=0;rotatable=0;autosize=1;" parent="132" vertex="1" connectable="0">
                    <mxGeometry y="30" width="370" height="30" as="geometry"/>
                </mxCell>
                <mxCell id="140" value="$CONFIG: UseStdBool" style="shape=swimlane;rotatable=0;align=center;verticalAlign=top;fontFamily=Lucida Console;startSize=30;fontSize=14;fontStyle=1;swimlaneFillColor=default;html=1;rounded=1;arcSize=15;absoluteArcSize=1;fillColor=#76608a;fontColor=#ffffff;strokeColor=#432D57;" parent="62" vertex="1">
                    <mxGeometry x="2420" y="370" width="370" height="70" as="geometry">
                        <mxRectangle x="1320" y="430" width="280" height="70" as="alternateBounds"/>
                    </mxGeometry>
                </mxCell>
                <mxCell id="141" value="false" style="fontFamily=Lucida Console;align=left;verticalAlign=top;fillColor=none;gradientColor=none;strokeColor=none;rounded=0;spacingLeft=4;resizable=0;movable=0;deletable=0;rotatable=0;autosize=1;" parent="140" vertex="1" connectable="0">
                    <mxGeometry y="30" width="370" height="30" as="geometry"/>
                </mxCell>
                <mxCell id="93" value="&lt;b&gt;$NOTES&lt;/b&gt;&lt;br&gt;IRenderConfigC settings that are used for C." style="shape=rectangle;rounded=1;arcSize=15;absoluteArcSize=1;align=left;verticalAlign=top;whiteSpace=wrap;html=1;spacingLeft=4;strokeWidth=1;strokeColor=default;fillColor=#fff2cc;fontColor=#000000;gradientColor=#ffd966;" parent="62" vertex="1">
                    <mxGeometry x="40" y="320" width="440" height="40" as="geometry"/>
                </mxCell>
                <mxCell id="86" value="$CONFIG: AutoExpandedVars" style="shape=swimlane;rotatable=0;align=center;verticalAlign=top;fontFamily=Lucida Console;startSize=30;fontSize=14;fontStyle=1;swimlaneFillColor=default;html=1;rounded=1;arcSize=15;absoluteArcSize=1;fillColor=#76608a;fontColor=#ffffff;strokeColor=#432D57;" parent="62" vertex="1" collapsed="1">
                    <mxGeometry x="360" y="210" width="280" height="70" as="geometry">
                        <mxRectangle x="30" y="170" width="290" height="90" as="alternateBounds"/>
                    </mxGeometry>
                </mxCell>
                <mxCell id="87" value="// sm level - AutoExpandedVars" style="fontFamily=Lucida Console;align=left;verticalAlign=top;fillColor=none;gradientColor=none;strokeColor=none;rounded=0;spacingLeft=4;resizable=0;movable=0;deletable=0;rotatable=0;autosize=1;" parent="86" vertex="1" connectable="0">
                    <mxGeometry y="30" width="240" height="30" as="geometry"/>
                </mxCell>
                <mxCell id="70" value="$CONFIG: VariableDeclarations" style="shape=swimlane;rotatable=0;align=center;verticalAlign=top;fontFamily=Lucida Console;startSize=30;fontSize=14;fontStyle=1;swimlaneFillColor=default;html=1;rounded=1;arcSize=15;absoluteArcSize=1;fillColor=#76608a;fontColor=#ffffff;strokeColor=#432D57;" parent="62" vertex="1" collapsed="1">
                    <mxGeometry x="680" y="210" width="280" height="70" as="geometry">
                        <mxRectangle x="30" y="170" width="290" height="90" as="alternateBounds"/>
                    </mxGeometry>
                </mxCell>
                <mxCell id="71" value="int sm_level; // sm level - VariableDeclarations" style="fontFamily=Lucida Console;align=left;verticalAlign=top;fillColor=none;gradientColor=none;strokeColor=none;rounded=0;spacingLeft=4;resizable=0;movable=0;deletable=0;rotatable=0;autosize=1;" parent="70" vertex="1" connectable="0">
                    <mxGeometry y="30" width="370" height="30" as="geometry"/>
                </mxCell>
                <mxCell id="72" value="&lt;b&gt;$NOTES&lt;/b&gt;&lt;br&gt;Anything you type in the &lt;b&gt;VariableDeclarations&amp;nbsp;&lt;/b&gt;vertex ends up in the generated h file. It is combined with the C# &lt;b&gt;IRenderConfigC.VariableDeclarations&amp;nbsp;&lt;/b&gt;config." style="shape=rectangle;rounded=1;arcSize=15;absoluteArcSize=1;align=left;verticalAlign=top;whiteSpace=wrap;html=1;spacingLeft=4;strokeWidth=1;strokeColor=default;fillColor=#fff2cc;fontColor=#000000;gradientColor=#ffd966;" parent="70" vertex="1">
                    <mxGeometry x="60" y="140" width="330" height="70" as="geometry"/>
                </mxCell>
                <mxCell id="88" value="$CONFIG: FileTop" style="shape=swimlane;rotatable=0;align=center;verticalAlign=top;fontFamily=Lucida Console;startSize=30;fontSize=14;fontStyle=1;swimlaneFillColor=default;html=1;rounded=1;arcSize=15;absoluteArcSize=1;fillColor=#76608a;fontColor=#ffffff;strokeColor=#432D57;" parent="62" vertex="1" collapsed="1">
                    <mxGeometry x="40" y="210" width="280" height="70" as="geometry">
                        <mxRectangle x="30" y="60" width="290" height="90" as="alternateBounds"/>
                    </mxGeometry>
                </mxCell>
                <mxCell id="89" value="// sm level - FileTop" style="fontFamily=Lucida Console;align=left;verticalAlign=top;fillColor=none;gradientColor=none;strokeColor=none;rounded=0;spacingLeft=4;resizable=0;movable=0;deletable=0;rotatable=0;autosize=1;" parent="88" vertex="1" connectable="0">
                    <mxGeometry y="30" width="180" height="30" as="geometry"/>
                </mxCell>
                <mxCell id="126" value="$CONFIG: TriggerMap" style="shape=swimlane;rotatable=0;align=center;verticalAlign=top;fontFamily=Lucida Console;startSize=30;fontSize=14;fontStyle=1;swimlaneFillColor=default;html=1;rounded=1;arcSize=15;absoluteArcSize=1;fillColor=#76608a;fontColor=#ffffff;strokeColor=#432D57;" parent="62" vertex="1" collapsed="1">
                    <mxGeometry x="1000" y="210" width="280" height="70" as="geometry">
                        <mxRectangle x="30" y="60" width="290" height="90" as="alternateBounds"/>
                    </mxGeometry>
                </mxCell>
                <mxCell id="127" value="// some trigger mapping..." style="fontFamily=Lucida Console;align=left;verticalAlign=top;fillColor=none;gradientColor=none;strokeColor=none;rounded=0;spacingLeft=4;resizable=0;movable=0;deletable=0;rotatable=0;autosize=1;" parent="126" vertex="1" connectable="0">
                    <mxGeometry y="30" width="210" height="30" as="geometry"/>
                </mxCell>
                <mxCell id="92" value="&lt;b&gt;$NOTES&lt;/b&gt;&lt;br&gt;IRenderConfig settings that are used for &lt;b&gt;any programming language.&lt;/b&gt;" style="shape=rectangle;rounded=1;arcSize=15;absoluteArcSize=1;align=left;verticalAlign=top;whiteSpace=wrap;html=1;spacingLeft=4;strokeWidth=1;strokeColor=default;fillColor=#fff2cc;fontColor=#000000;gradientColor=#ffd966;" parent="62" vertex="1">
                    <mxGeometry x="40" y="160" width="440" height="40" as="geometry"/>
                </mxCell>
                <mxCell id="94" value="&lt;b&gt;$NOTES&lt;/b&gt;&lt;br&gt;IRenderConfigCSharp settings that are used for CSharp." style="shape=rectangle;rounded=1;arcSize=15;absoluteArcSize=1;align=left;verticalAlign=top;whiteSpace=wrap;html=1;spacingLeft=4;strokeWidth=1;strokeColor=default;fillColor=#fff2cc;fontColor=#000000;gradientColor=#ffd966;" parent="62" vertex="1">
                    <mxGeometry x="40" y="480" width="440" height="40" as="geometry"/>
                </mxCell>
                <mxCell id="115" value="$CONFIG: CSharpBaseList" style="shape=swimlane;rotatable=0;align=center;verticalAlign=top;fontFamily=Lucida Console;startSize=30;fontSize=14;fontStyle=1;swimlaneFillColor=default;html=1;rounded=1;arcSize=15;absoluteArcSize=1;fillColor=#76608a;fontColor=#ffffff;strokeColor=#432D57;" parent="62" vertex="1" collapsed="1">
                    <mxGeometry x="40" y="530" width="280" height="70" as="geometry">
                        <mxRectangle x="30" y="170" width="290" height="90" as="alternateBounds"/>
                    </mxGeometry>
                </mxCell>
                <mxCell id="116" value="SomeClass, ISomeInterface" style="fontFamily=Lucida Console;align=left;verticalAlign=top;fillColor=none;gradientColor=none;strokeColor=none;rounded=0;spacingLeft=4;resizable=0;movable=0;deletable=0;rotatable=0;autosize=1;" parent="115" vertex="1" connectable="0">
                    <mxGeometry y="30" width="210" height="30" as="geometry"/>
                </mxCell>
                <mxCell id="95" value="$CONFIG: CSharpUsings" style="shape=swimlane;rotatable=0;align=center;verticalAlign=top;fontFamily=Lucida Console;startSize=30;fontSize=14;fontStyle=1;swimlaneFillColor=default;html=1;rounded=1;arcSize=15;absoluteArcSize=1;fillColor=#76608a;fontColor=#ffffff;strokeColor=#432D57;" parent="62" vertex="1" collapsed="1">
                    <mxGeometry x="360" y="530" width="280" height="70" as="geometry">
                        <mxRectangle x="30" y="170" width="290" height="90" as="alternateBounds"/>
                    </mxGeometry>
                </mxCell>
                <mxCell id="96" value="// sm level - Usings" style="fontFamily=Lucida Console;align=left;verticalAlign=top;fillColor=none;gradientColor=none;strokeColor=none;rounded=0;spacingLeft=4;resizable=0;movable=0;deletable=0;rotatable=0;autosize=1;" parent="95" vertex="1" connectable="0">
                    <mxGeometry y="30" width="170" height="30" as="geometry"/>
                </mxCell>
                <mxCell id="97" value="&lt;b&gt;$NOTES&lt;/b&gt;&lt;br&gt;Anything you type in the &lt;b&gt;CSharpUsings&amp;nbsp;&lt;/b&gt;vertex ends up in the generated .cs file. It is combined with the C# &lt;b&gt;IRenderConfigCSharp.Usings&lt;/b&gt; config." style="shape=rectangle;rounded=1;arcSize=15;absoluteArcSize=1;align=left;verticalAlign=top;whiteSpace=wrap;html=1;spacingLeft=4;strokeWidth=1;strokeColor=default;fillColor=#fff2cc;fontColor=#000000;gradientColor=#ffd966;" parent="95" vertex="1">
                    <mxGeometry x="50" y="130" width="330" height="70" as="geometry"/>
                </mxCell>
                <mxCell id="98" value="$CONFIG: CSharpNameSpace" style="shape=swimlane;rotatable=0;align=center;verticalAlign=top;fontFamily=Lucida Console;startSize=30;fontSize=14;fontStyle=1;swimlaneFillColor=default;html=1;rounded=1;arcSize=15;absoluteArcSize=1;fillColor=#76608a;fontColor=#ffffff;strokeColor=#432D57;" parent="62" vertex="1" collapsed="1">
                    <mxGeometry x="680" y="530" width="280" height="70" as="geometry">
                        <mxRectangle x="30" y="60" width="290" height="90" as="alternateBounds"/>
                    </mxGeometry>
                </mxCell>
                <mxCell id="99" value="// sm level - NameSpace" style="fontFamily=Lucida Console;align=left;verticalAlign=top;fillColor=none;gradientColor=none;strokeColor=none;rounded=0;spacingLeft=4;resizable=0;movable=0;deletable=0;rotatable=0;autosize=1;" parent="98" vertex="1" connectable="0">
                    <mxGeometry y="30" width="190" height="30" as="geometry"/>
                </mxCell>
                <mxCell id="101" value="&lt;b&gt;$NOTES&lt;/b&gt;&lt;br&gt;Anything you type in the &lt;b&gt;CSharpNameSpace&amp;nbsp;&lt;/b&gt;vertex ends up in the generated .cs file. It is combined with the C# &lt;b&gt;IRenderConfigCSharp.NameSpace&lt;/b&gt; config." style="shape=rectangle;rounded=1;arcSize=15;absoluteArcSize=1;align=left;verticalAlign=top;whiteSpace=wrap;html=1;spacingLeft=4;strokeWidth=1;strokeColor=default;fillColor=#fff2cc;fontColor=#000000;gradientColor=#ffd966;" parent="98" vertex="1">
                    <mxGeometry x="60" y="140" width="330" height="70" as="geometry"/>
                </mxCell>
                <mxCell id="108" value="$CONFIG: CSharpClassCode" style="shape=swimlane;rotatable=0;align=center;verticalAlign=top;fontFamily=Lucida Console;startSize=30;fontSize=14;fontStyle=1;swimlaneFillColor=default;html=1;rounded=1;arcSize=15;absoluteArcSize=1;fillColor=#76608a;fontColor=#ffffff;strokeColor=#432D57;" parent="62" vertex="1" collapsed="1">
                    <mxGeometry x="1000" y="530" width="280" height="70" as="geometry">
                        <mxRectangle x="30" y="60" width="290" height="90" as="alternateBounds"/>
                    </mxGeometry>
                </mxCell>
                <mxCell id="109" value="// sm level - CSharpClassCode" style="fontFamily=Lucida Console;align=left;verticalAlign=top;fillColor=none;gradientColor=none;strokeColor=none;rounded=0;spacingLeft=4;resizable=0;movable=0;deletable=0;rotatable=0;autosize=1;" parent="108" vertex="1" connectable="0">
                    <mxGeometry y="30" width="240" height="30" as="geometry"/>
                </mxCell>
                <mxCell id="110" value="&lt;b&gt;$NOTES&lt;/b&gt;&lt;br&gt;Anything you type in the &lt;b&gt;CSharpNameSpace&amp;nbsp;&lt;/b&gt;vertex ends up in the generated .cs file. It is combined with the C# &lt;b&gt;IRenderConfigCSharp.NameSpace&lt;/b&gt; config." style="shape=rectangle;rounded=1;arcSize=15;absoluteArcSize=1;align=left;verticalAlign=top;whiteSpace=wrap;html=1;spacingLeft=4;strokeWidth=1;strokeColor=default;fillColor=#fff2cc;fontColor=#000000;gradientColor=#ffd966;" parent="108" vertex="1">
                    <mxGeometry x="60" y="140" width="330" height="70" as="geometry"/>
                </mxCell>
                <mxCell id="111" value="$CONFIG: CSharpUseNullable" style="shape=swimlane;rotatable=0;align=center;verticalAlign=top;fontFamily=Lucida Console;startSize=30;fontSize=14;fontStyle=1;swimlaneFillColor=default;html=1;rounded=1;arcSize=15;absoluteArcSize=1;fillColor=#76608a;fontColor=#ffffff;strokeColor=#432D57;" parent="62" vertex="1">
                    <mxGeometry x="1320" y="530" width="280" height="70" as="geometry">
                        <mxRectangle x="1000" y="610" width="280" height="70" as="alternateBounds"/>
                    </mxGeometry>
                </mxCell>
                <mxCell id="112" value="false" style="fontFamily=Lucida Console;align=left;verticalAlign=top;fillColor=none;gradientColor=none;strokeColor=none;rounded=0;spacingLeft=4;resizable=0;movable=0;deletable=0;rotatable=0;autosize=1;" parent="111" vertex="1" connectable="0">
                    <mxGeometry y="30" width="60" height="30" as="geometry"/>
                </mxCell>
                <mxCell id="113" value="$CONFIG: CSharpUsePartialClass" style="shape=swimlane;rotatable=0;align=center;verticalAlign=top;fontFamily=Lucida Console;startSize=30;fontSize=14;fontStyle=1;swimlaneFillColor=default;html=1;rounded=1;arcSize=15;absoluteArcSize=1;fillColor=#76608a;fontColor=#ffffff;strokeColor=#432D57;" parent="62" vertex="1">
                    <mxGeometry x="1640" y="530" width="320" height="70" as="geometry">
                        <mxRectangle x="1000" y="610" width="280" height="70" as="alternateBounds"/>
                    </mxGeometry>
                </mxCell>
                <mxCell id="114" value="false" style="fontFamily=Lucida Console;align=left;verticalAlign=top;fillColor=none;gradientColor=none;strokeColor=none;rounded=0;spacingLeft=4;resizable=0;movable=0;deletable=0;rotatable=0;autosize=1;" parent="113" vertex="1" connectable="0">
                    <mxGeometry y="30" width="60" height="30" as="geometry"/>
                </mxCell>
                <mxCell id="117" value="&lt;b&gt;$NOTES&lt;/b&gt;&lt;br&gt;IRenderConfigJavaScript settings that are used for JavaScript." style="shape=rectangle;rounded=1;arcSize=15;absoluteArcSize=1;align=left;verticalAlign=top;whiteSpace=wrap;html=1;spacingLeft=4;strokeWidth=1;strokeColor=default;fillColor=#fff2cc;fontColor=#000000;gradientColor=#ffd966;" parent="62" vertex="1">
                    <mxGeometry x="40" y="640" width="440" height="40" as="geometry"/>
                </mxCell>
                <mxCell id="118" value="$CONFIG: JavaScriptExtendsSuperClass" style="shape=swimlane;rotatable=0;align=center;verticalAlign=top;fontFamily=Lucida Console;startSize=30;fontSize=14;fontStyle=1;swimlaneFillColor=default;html=1;rounded=1;arcSize=15;absoluteArcSize=1;fillColor=#76608a;fontColor=#ffffff;strokeColor=#432D57;" parent="62" vertex="1">
                    <mxGeometry x="40" y="690" width="360" height="70" as="geometry">
                        <mxRectangle x="40" y="770" width="360" height="70" as="alternateBounds"/>
                    </mxGeometry>
                </mxCell>
                <mxCell id="119" value="sm level - ExtendsSuperClass" style="fontFamily=Lucida Console;align=left;verticalAlign=top;fillColor=none;gradientColor=none;strokeColor=none;rounded=0;spacingLeft=4;resizable=0;movable=0;deletable=0;rotatable=0;autosize=1;" parent="118" vertex="1" connectable="0">
                    <mxGeometry y="30" width="230" height="30" as="geometry"/>
                </mxCell>
                <mxCell id="120" value="$CONFIG: JavaScriptClassCode" style="shape=swimlane;rotatable=0;align=center;verticalAlign=top;fontFamily=Lucida Console;startSize=30;fontSize=14;fontStyle=1;swimlaneFillColor=default;html=1;rounded=1;arcSize=15;absoluteArcSize=1;fillColor=#76608a;fontColor=#ffffff;strokeColor=#432D57;" parent="62" vertex="1">
                    <mxGeometry x="440" y="690" width="320" height="70" as="geometry">
                        <mxRectangle x="440" y="770" width="360" height="70" as="alternateBounds"/>
                    </mxGeometry>
                </mxCell>
                <mxCell id="121" value="sm level - ClassCode" style="fontFamily=Lucida Console;align=left;verticalAlign=top;fillColor=none;gradientColor=none;strokeColor=none;rounded=0;spacingLeft=4;resizable=0;movable=0;deletable=0;rotatable=0;autosize=1;" parent="120" vertex="1" connectable="0">
                    <mxGeometry y="30" width="170" height="30" as="geometry"/>
                </mxCell>
                <mxCell id="122" value="$CONFIG: JavaScriptUseExportOnClass" style="shape=swimlane;rotatable=0;align=center;verticalAlign=top;fontFamily=Lucida Console;startSize=30;fontSize=14;fontStyle=1;swimlaneFillColor=default;html=1;rounded=1;arcSize=15;absoluteArcSize=1;fillColor=#76608a;fontColor=#ffffff;strokeColor=#432D57;" parent="62" vertex="1">
                    <mxGeometry x="800" y="690" width="360" height="70" as="geometry">
                        <mxRectangle x="840" y="770" width="360" height="70" as="alternateBounds"/>
                    </mxGeometry>
                </mxCell>
                <mxCell id="123" value="true" style="fontFamily=Lucida Console;align=left;verticalAlign=top;fillColor=none;gradientColor=none;strokeColor=none;rounded=0;spacingLeft=4;resizable=0;movable=0;deletable=0;rotatable=0;autosize=1;" parent="122" vertex="1" connectable="0">
                    <mxGeometry y="30" width="50" height="30" as="geometry"/>
                </mxCell>
                <mxCell id="124" value="$CONFIG: JavaScriptPrivatePrefix" style="shape=swimlane;rotatable=0;align=center;verticalAlign=top;fontFamily=Lucida Console;startSize=30;fontSize=14;fontStyle=1;swimlaneFillColor=default;html=1;rounded=1;arcSize=15;absoluteArcSize=1;fillColor=#76608a;fontColor=#ffffff;strokeColor=#432D57;" parent="62" vertex="1">
                    <mxGeometry x="1200" y="690" width="360" height="70" as="geometry">
                        <mxRectangle x="1240" y="770" width="360" height="70" as="alternateBounds"/>
                    </mxGeometry>
                </mxCell>
                <mxCell id="125" value="sm level - PrivatePrefix" style="fontFamily=Lucida Console;align=left;verticalAlign=top;fillColor=none;gradientColor=none;strokeColor=none;rounded=0;spacingLeft=4;resizable=0;movable=0;deletable=0;rotatable=0;autosize=1;" parent="124" vertex="1" connectable="0">
                    <mxGeometry y="30" width="200" height="30" as="geometry"/>
                </mxCell>
                <mxCell id="142" value="$CONFIG: IncludeGuardLabel" style="shape=swimlane;rotatable=0;align=center;verticalAlign=top;fontFamily=Lucida Console;startSize=30;fontSize=14;fontStyle=1;swimlaneFillColor=default;html=1;rounded=1;arcSize=15;absoluteArcSize=1;fillColor=#76608a;fontColor=#ffffff;strokeColor=#432D57;" vertex="1" parent="62">
                    <mxGeometry x="2820" y="370" width="370" height="70" as="geometry">
                        <mxRectangle x="1320" y="430" width="280" height="70" as="alternateBounds"/>
                    </mxGeometry>
                </mxCell>
                <mxCell id="143" value="ROCKETSM_H" style="fontFamily=Lucida Console;align=left;verticalAlign=top;fillColor=none;gradientColor=none;strokeColor=none;rounded=0;spacingLeft=4;resizable=0;movable=0;deletable=0;rotatable=0;autosize=1;" vertex="1" connectable="0" parent="142">
                    <mxGeometry y="30" width="100" height="30" as="geometry"/>
                </mxCell>
                <mxCell id="40" value="$RenderConfig" style="shape=swimlane;rotatable=0;align=center;verticalAlign=top;fontFamily=Lucida Console;startSize=30;fontSize=14;fontStyle=1;swimlaneFillColor=default;html=1;rounded=1;arcSize=15;absoluteArcSize=1;fillColor=#76608a;strokeColor=#432D57;fontColor=#ffffff;" parent="1" vertex="1" collapsed="1">
                    <mxGeometry x="390" y="40" width="210" height="70" as="geometry">
                        <mxRectangle x="320" y="40" width="360" height="470" as="alternateBounds"/>
                    </mxGeometry>
                </mxCell>
                <mxCell id="41" value="" style="fontFamily=Lucida Console;align=left;verticalAlign=top;fillColor=none;gradientColor=none;strokeColor=none;rounded=0;spacingLeft=4;resizable=0;movable=0;deletable=0;rotatable=0;autosize=1;" parent="40" vertex="1" connectable="0">
                    <mxGeometry y="30" width="50" height="40" as="geometry"/>
                </mxCell>
                <mxCell id="42" value="$CONFIG: HFileIncludes" style="shape=swimlane;rotatable=0;align=center;verticalAlign=top;fontFamily=Lucida Console;startSize=30;fontSize=14;fontStyle=1;swimlaneFillColor=default;html=1;rounded=1;arcSize=15;absoluteArcSize=1;fillColor=#76608a;fontColor=#ffffff;strokeColor=#432D57;" parent="40" vertex="1" collapsed="1">
                    <mxGeometry x="30" y="60" width="280" height="70" as="geometry">
                        <mxRectangle x="30" y="60" width="290" height="90" as="alternateBounds"/>
                    </mxGeometry>
                </mxCell>
                <mxCell id="43" value="// top level - HFileIncludes" style="fontFamily=Lucida Console;align=left;verticalAlign=top;fillColor=none;gradientColor=none;strokeColor=none;rounded=0;spacingLeft=4;resizable=0;movable=0;deletable=0;rotatable=0;autosize=1;" parent="42" vertex="1" connectable="0">
                    <mxGeometry y="30" width="230" height="30" as="geometry"/>
                </mxCell>
                <mxCell id="57" value="&lt;b&gt;$NOTES&lt;/b&gt;&lt;br&gt;Anything you type in the &lt;b&gt;HFileIncludes &lt;/b&gt;vertex ends up in the generated h file. It is combined with the C# &lt;b&gt;IRenderConfigC.HFileIncludes&lt;/b&gt; config." style="shape=rectangle;rounded=1;arcSize=15;absoluteArcSize=1;align=left;verticalAlign=top;whiteSpace=wrap;html=1;spacingLeft=4;strokeWidth=1;strokeColor=default;fillColor=#fff2cc;fontColor=#000000;gradientColor=#ffd966;" parent="42" vertex="1">
                    <mxGeometry x="40" y="120" width="330" height="70" as="geometry"/>
                </mxCell>
                <mxCell id="58" value="&lt;b&gt;$NOTES&lt;/b&gt;&lt;br&gt;Note that generic expansions can only be created from the C# file within the &lt;b&gt;IRenderConfigC &lt;/b&gt;section for now." style="shape=rectangle;rounded=1;arcSize=15;absoluteArcSize=1;align=left;verticalAlign=top;whiteSpace=wrap;html=1;spacingLeft=4;strokeWidth=1;strokeColor=default;fillColor=#fff2cc;fontColor=#000000;gradientColor=#ffd966;" parent="40" vertex="1">
                    <mxGeometry x="350" y="60" width="250" height="70" as="geometry"/>
                </mxCell>
                <mxCell id="48" value="$CONFIG: CFileIncludes" style="shape=swimlane;rotatable=0;align=center;verticalAlign=top;fontFamily=Lucida Console;startSize=30;fontSize=14;fontStyle=1;swimlaneFillColor=default;html=1;rounded=1;arcSize=15;absoluteArcSize=1;fillColor=#76608a;fontColor=#ffffff;strokeColor=#432D57;" parent="40" vertex="1" collapsed="1">
                    <mxGeometry x="30" y="160" width="280" height="70" as="geometry">
                        <mxRectangle x="30" y="170" width="290" height="90" as="alternateBounds"/>
                    </mxGeometry>
                </mxCell>
                <mxCell id="49" value="// top level - CFileIncludes" style="fontFamily=Lucida Console;align=left;verticalAlign=top;fillColor=none;gradientColor=none;strokeColor=none;rounded=0;spacingLeft=4;resizable=0;movable=0;deletable=0;rotatable=0;autosize=1;" parent="48" vertex="1" connectable="0">
                    <mxGeometry y="30" width="230" height="30" as="geometry"/>
                </mxCell>
                <mxCell id="59" value="&lt;b&gt;$NOTES&lt;/b&gt;&lt;br&gt;Anything you type in the &lt;b&gt;CFileIncludes &lt;/b&gt;vertex ends up in the generated h file. It is combined with the C# &lt;b&gt;IRenderConfigC.CFileIncludes&lt;/b&gt; config." style="shape=rectangle;rounded=1;arcSize=15;absoluteArcSize=1;align=left;verticalAlign=top;whiteSpace=wrap;html=1;spacingLeft=4;strokeWidth=1;strokeColor=default;fillColor=#fff2cc;fontColor=#000000;gradientColor=#ffd966;" parent="48" vertex="1">
                    <mxGeometry x="50" y="130" width="330" height="70" as="geometry"/>
                </mxCell>
                <mxCell id="50" value="$CONFIG: VariableDeclarations" style="shape=swimlane;rotatable=0;align=center;verticalAlign=top;fontFamily=Lucida Console;startSize=30;fontSize=14;fontStyle=1;swimlaneFillColor=default;html=1;rounded=1;arcSize=15;absoluteArcSize=1;fillColor=#76608a;fontColor=#ffffff;strokeColor=#432D57;" parent="40" vertex="1" collapsed="1">
                    <mxGeometry x="30" y="260" width="280" height="70" as="geometry">
                        <mxRectangle x="30" y="170" width="290" height="90" as="alternateBounds"/>
                    </mxGeometry>
                </mxCell>
                <mxCell id="51" value="int top_level; // top level - VariableDeclarations" style="fontFamily=Lucida Console;align=left;verticalAlign=top;fillColor=none;gradientColor=none;strokeColor=none;rounded=0;spacingLeft=4;resizable=0;movable=0;deletable=0;rotatable=0;autosize=1;" parent="50" vertex="1" connectable="0">
                    <mxGeometry y="30" width="390" height="30" as="geometry"/>
                </mxCell>
                <mxCell id="60" value="&lt;b&gt;$NOTES&lt;/b&gt;&lt;br&gt;Anything you type in the &lt;b&gt;VariableDeclarations&amp;nbsp;&lt;/b&gt;vertex ends up in the generated h file. It is combined with the C# &lt;b&gt;IRenderConfigC.VariableDeclarations&amp;nbsp;&lt;/b&gt;config." style="shape=rectangle;rounded=1;arcSize=15;absoluteArcSize=1;align=left;verticalAlign=top;whiteSpace=wrap;html=1;spacingLeft=4;strokeWidth=1;strokeColor=default;fillColor=#fff2cc;fontColor=#000000;gradientColor=#ffd966;" parent="50" vertex="1">
                    <mxGeometry x="60" y="140" width="330" height="70" as="geometry"/>
                </mxCell>
                <mxCell id="82" value="$CONFIG: CFileTop" style="shape=swimlane;rotatable=0;align=center;verticalAlign=top;fontFamily=Lucida Console;startSize=30;fontSize=14;fontStyle=1;swimlaneFillColor=default;html=1;rounded=1;arcSize=15;absoluteArcSize=1;fillColor=#76608a;fontColor=#ffffff;strokeColor=#432D57;" parent="40" vertex="1" collapsed="1">
                    <mxGeometry x="680" y="360" width="280" height="70" as="geometry">
                        <mxRectangle x="30" y="170" width="290" height="90" as="alternateBounds"/>
                    </mxGeometry>
                </mxCell>
                <mxCell id="83" value="// top level - CFileTop" style="fontFamily=Lucida Console;align=left;verticalAlign=top;fillColor=none;gradientColor=none;strokeColor=none;rounded=0;spacingLeft=4;resizable=0;movable=0;deletable=0;rotatable=0;autosize=1;" parent="82" vertex="1" connectable="0">
                    <mxGeometry y="30" width="190" height="30" as="geometry"/>
                </mxCell>
                <mxCell id="80" value="$CONFIG: HFileTop" style="shape=swimlane;rotatable=0;align=center;verticalAlign=top;fontFamily=Lucida Console;startSize=30;fontSize=14;fontStyle=1;swimlaneFillColor=default;html=1;rounded=1;arcSize=15;absoluteArcSize=1;fillColor=#76608a;fontColor=#ffffff;strokeColor=#432D57;" parent="40" vertex="1" collapsed="1">
                    <mxGeometry x="360" y="360" width="280" height="70" as="geometry">
                        <mxRectangle x="30" y="60" width="290" height="90" as="alternateBounds"/>
                    </mxGeometry>
                </mxCell>
                <mxCell id="81" value="// top level - HFileTop" style="fontFamily=Lucida Console;align=left;verticalAlign=top;fillColor=none;gradientColor=none;strokeColor=none;rounded=0;spacingLeft=4;resizable=0;movable=0;deletable=0;rotatable=0;autosize=1;" parent="80" vertex="1" connectable="0">
                    <mxGeometry y="30" width="190" height="30" as="geometry"/>
                </mxCell>
                <mxCell id="90" value="$CONFIG: FileTop" style="shape=swimlane;rotatable=0;align=center;verticalAlign=top;fontFamily=Lucida Console;startSize=30;fontSize=14;fontStyle=1;swimlaneFillColor=default;html=1;rounded=1;arcSize=15;absoluteArcSize=1;fillColor=#76608a;fontColor=#ffffff;strokeColor=#432D57;" parent="40" vertex="1" collapsed="1">
                    <mxGeometry x="30" y="360" width="280" height="70" as="geometry">
                        <mxRectangle x="30" y="60" width="290" height="90" as="alternateBounds"/>
                    </mxGeometry>
                </mxCell>
                <mxCell id="91" value="// top level - FileTop" style="fontFamily=Lucida Console;align=left;verticalAlign=top;fillColor=none;gradientColor=none;strokeColor=none;rounded=0;spacingLeft=4;resizable=0;movable=0;deletable=0;rotatable=0;autosize=1;" parent="90" vertex="1" connectable="0">
                    <mxGeometry y="30" width="180" height="30" as="geometry"/>
                </mxCell>
                <mxCell id="84" value="$CONFIG: AutoExpandedVars" style="shape=swimlane;rotatable=0;align=center;verticalAlign=top;fontFamily=Lucida Console;startSize=30;fontSize=14;fontStyle=1;swimlaneFillColor=default;html=1;rounded=1;arcSize=15;absoluteArcSize=1;fillColor=#76608a;fontColor=#ffffff;strokeColor=#432D57;" parent="40" vertex="1" collapsed="1">
                    <mxGeometry x="30" y="470" width="280" height="70" as="geometry">
                        <mxRectangle x="30" y="170" width="290" height="90" as="alternateBounds"/>
                    </mxGeometry>
                </mxCell>
                <mxCell id="85" value="// top level - AutoExpandedVars" style="fontFamily=Lucida Console;align=left;verticalAlign=top;fillColor=none;gradientColor=none;strokeColor=none;rounded=0;spacingLeft=4;resizable=0;movable=0;deletable=0;rotatable=0;autosize=1;" parent="84" vertex="1" connectable="0">
                    <mxGeometry y="30" width="250" height="30" as="geometry"/>
                </mxCell>
                <mxCell id="102" value="$CONFIG: CSharpUsings" style="shape=swimlane;rotatable=0;align=center;verticalAlign=top;fontFamily=Lucida Console;startSize=30;fontSize=14;fontStyle=1;swimlaneFillColor=default;html=1;rounded=1;arcSize=15;absoluteArcSize=1;fillColor=#76608a;fontColor=#ffffff;strokeColor=#432D57;" parent="40" vertex="1" collapsed="1">
                    <mxGeometry x="30" y="600" width="280" height="70" as="geometry">
                        <mxRectangle x="30" y="170" width="290" height="90" as="alternateBounds"/>
                    </mxGeometry>
                </mxCell>
                <mxCell id="103" value="// top level - Usings" style="fontFamily=Lucida Console;align=left;verticalAlign=top;fillColor=none;gradientColor=none;strokeColor=none;rounded=0;spacingLeft=4;resizable=0;movable=0;deletable=0;rotatable=0;autosize=1;" parent="102" vertex="1" connectable="0">
                    <mxGeometry y="30" width="180" height="30" as="geometry"/>
                </mxCell>
                <mxCell id="104" value="&lt;b&gt;$NOTES&lt;/b&gt;&lt;br&gt;Anything you type in the &lt;b&gt;CSharpUsings&amp;nbsp;&lt;/b&gt;vertex ends up in the generated .cs file. It is combined with the C# &lt;b&gt;IRenderConfigCSharp.Usings&lt;/b&gt; config." style="shape=rectangle;rounded=1;arcSize=15;absoluteArcSize=1;align=left;verticalAlign=top;whiteSpace=wrap;html=1;spacingLeft=4;strokeWidth=1;strokeColor=default;fillColor=#fff2cc;fontColor=#000000;gradientColor=#ffd966;" parent="102" vertex="1">
                    <mxGeometry x="50" y="130" width="330" height="70" as="geometry"/>
                </mxCell>
                <mxCell id="105" value="$CONFIG: CSharpNameSpace" style="shape=swimlane;rotatable=0;align=center;verticalAlign=top;fontFamily=Lucida Console;startSize=30;fontSize=14;fontStyle=1;swimlaneFillColor=default;html=1;rounded=1;arcSize=15;absoluteArcSize=1;fillColor=#76608a;fontColor=#ffffff;strokeColor=#432D57;" parent="40" vertex="1" collapsed="1">
                    <mxGeometry x="350" y="600" width="280" height="70" as="geometry">
                        <mxRectangle x="30" y="60" width="290" height="90" as="alternateBounds"/>
                    </mxGeometry>
                </mxCell>
                <mxCell id="106" value="// top level - NameSpace" style="fontFamily=Lucida Console;align=left;verticalAlign=top;fillColor=none;gradientColor=none;strokeColor=none;rounded=0;spacingLeft=4;resizable=0;movable=0;deletable=0;rotatable=0;autosize=1;" parent="105" vertex="1" connectable="0">
                    <mxGeometry y="30" width="200" height="30" as="geometry"/>
                </mxCell>
                <mxCell id="107" value="&lt;b&gt;$NOTES&lt;/b&gt;&lt;br&gt;Anything you type in the &lt;b&gt;CSharpNameSpace&amp;nbsp;&lt;/b&gt;vertex ends up in the generated .cs file. It is combined with the C# &lt;b&gt;IRenderConfigCSharp.NameSpace&lt;/b&gt; config." style="shape=rectangle;rounded=1;arcSize=15;absoluteArcSize=1;align=left;verticalAlign=top;whiteSpace=wrap;html=1;spacingLeft=4;strokeWidth=1;strokeColor=default;fillColor=#fff2cc;fontColor=#000000;gradientColor=#ffd966;" parent="105" vertex="1">
                    <mxGeometry x="60" y="140" width="330" height="70" as="geometry"/>
                </mxCell>
                <mxCell id="134" value="$CONFIG: DefaultVarExpTemplate" style="shape=swimlane;rotatable=0;align=center;verticalAlign=top;fontFamily=Lucida Console;startSize=30;fontSize=14;fontStyle=1;swimlaneFillColor=default;html=1;rounded=1;arcSize=15;absoluteArcSize=1;fillColor=#76608a;fontColor=#ffffff;strokeColor=#432D57;" parent="40" vertex="1">
                    <mxGeometry x="360" y="470" width="290" height="70" as="geometry">
                        <mxRectangle x="360" y="470" width="320" height="70" as="alternateBounds"/>
                    </mxGeometry>
                </mxCell>
                <mxCell id="135" value="this.myVars.{AutoNameCopy()}" style="fontFamily=Lucida Console;align=left;verticalAlign=top;fillColor=none;gradientColor=none;strokeColor=none;rounded=0;spacingLeft=4;resizable=0;movable=0;deletable=0;rotatable=0;autosize=1;" parent="134" vertex="1" connectable="0">
                    <mxGeometry y="30" width="230" height="30" as="geometry"/>
                </mxCell>
                <mxCell id="136" value="$CONFIG: DefaultFuncExpTemplate" style="shape=swimlane;rotatable=0;align=center;verticalAlign=top;fontFamily=Lucida Console;startSize=30;fontSize=14;fontStyle=1;swimlaneFillColor=default;html=1;rounded=1;arcSize=15;absoluteArcSize=1;fillColor=#76608a;fontColor=#ffffff;strokeColor=#432D57;" parent="40" vertex="1">
                    <mxGeometry x="680" y="470" width="290" height="70" as="geometry">
                        <mxRectangle x="360" y="470" width="320" height="70" as="alternateBounds"/>
                    </mxGeometry>
                </mxCell>
                <mxCell id="137" value="this.myFuncs.{AutoNameCopy()}" style="fontFamily=Lucida Console;align=left;verticalAlign=top;fillColor=none;gradientColor=none;strokeColor=none;rounded=0;spacingLeft=4;resizable=0;movable=0;deletable=0;rotatable=0;autosize=1;" parent="136" vertex="1" connectable="0">
                    <mxGeometry y="30" width="240" height="30" as="geometry"/>
                </mxCell>
                <mxCell id="138" value="$CONFIG: DefaultAnyExpTemplate" style="shape=swimlane;rotatable=0;align=center;verticalAlign=top;fontFamily=Lucida Console;startSize=30;fontSize=14;fontStyle=1;swimlaneFillColor=default;html=1;rounded=1;arcSize=15;absoluteArcSize=1;fillColor=#76608a;fontColor=#ffffff;strokeColor=#432D57;" parent="40" vertex="1">
                    <mxGeometry x="1000" y="470" width="290" height="70" as="geometry">
                        <mxRectangle x="360" y="470" width="320" height="70" as="alternateBounds"/>
                    </mxGeometry>
                </mxCell>
                <mxCell id="139" value="this.{AutoNameCopy()}" style="fontFamily=Lucida Console;align=left;verticalAlign=top;fillColor=none;gradientColor=none;strokeColor=none;rounded=0;spacingLeft=4;resizable=0;movable=0;deletable=0;rotatable=0;autosize=1;" parent="138" vertex="1" connectable="0">
                    <mxGeometry y="30" width="180" height="30" as="geometry"/>
                </mxCell>
            </root>
        </mxGraphModel>
    </diagram>
</mxfile>